<svg xmlns="http://www.w3.org/2000/svg" viewBox="0 0 128 128">
  <defs>
    <linearGradient id="bg" x1="0%" y1="0%" x2="100%" y2="100%">
      <stop offset="0%" stop-color="#3f0d1d"/>
      <stop offset="52%" stop-color="#7a1730"/>
      <stop offset="100%" stop-color="#14060b"/>
    </linearGradient>
    <linearGradient id="stroke" x1="20%" y1="0%" x2="80%" y2="100%">
      <stop offset="0%" stop-color="#ffd8a6"/>
      <stop offset="100%" stop-color="#f6b860"/>
    </linearGradient>
  </defs>
  <rect x="6" y="6" width="116" height="116" rx="28" fill="url(#bg)"/>
  <rect x="10" y="10" width="108" height="108" rx="24" fill="none" stroke="rgba(255,255,255,.18)"/>
  <path d="M82 34c-6-6-14-9-24-9-17 0-30 9-30 23 0 33 48 18 48 39 0 6-6 10-15 10-9 0-18-3-28-9v13c8 5 17 7 28 7 19 0 32-10 32-24 0-35-48-20-48-39 0-6 5-10 14-10 8 0 15 2 23 7V34Z" fill="url(#stroke)"/>
</svg>
